<svg id="Layer_1" data-name="Layer 1" xmlns="http://www.w3.org/2000/svg" viewBox="0 0 68.17 57.95"><defs><style>.cls-1{fill:#fff;}.cls-2{fill:#ffcd2e;}.cls-3{fill:#b29414;}.cls-4{fill:#b0bec5;}.cls-5{fill:#90a4ae;}</style></defs><title>calendar</title><path class="cls-1" d="M17.48,44.47v-24h38v24a4,4,0,0,1-4,4h-30A4,4,0,0,1,17.48,44.47Z"/><path class="cls-2" d="M55.48,16.47v6h-38v-6a4,4,0,0,1,4-4h30A4,4,0,0,1,55.48,16.47Z"/><circle class="cls-3" cx="45.48" cy="16.47" r="3"/><circle class="cls-3" cx="27.48" cy="16.47" r="3"/><path class="cls-4" d="M45.48,9.47a2,2,0,0,0-2,2v5a2,2,0,1,0,4,0v-5A2,2,0,0,0,45.48,9.47Z"/><path class="cls-4" d="M27.48,9.47a2,2,0,0,0-2,2v5a2,2,0,0,0,4,0v-5A2,2,0,0,0,27.48,9.47Z"/><rect class="cls-5" x="25.48" y="26.47" width="4" height="4"/><rect class="cls-5" x="31.48" y="26.47" width="4" height="4"/><rect class="cls-5" x="37.48" y="26.47" width="4" height="4"/><rect class="cls-5" x="43.48" y="26.47" width="4" height="4"/><rect class="cls-5" x="25.48" y="32.47" width="4" height="4"/><rect class="cls-5" x="31.48" y="32.47" width="4" height="4"/><rect class="cls-5" x="37.48" y="32.47" width="4" height="4"/><rect class="cls-5" x="43.48" y="32.47" width="4" height="4"/><rect class="cls-5" x="25.48" y="38.47" width="4" height="4"/><rect class="cls-5" x="31.48" y="38.47" width="4" height="4"/><rect class="cls-5" x="37.48" y="38.47" width="4" height="4"/><rect class="cls-5" x="43.48" y="38.47" width="4" height="4"/></svg>