<svg id="Layer_1" data-name="Layer 1" xmlns="http://www.w3.org/2000/svg" viewBox="0 0 68.17 57.95"><defs><style>.cls-1{fill:#cfd8dc;}.cls-2{fill:#fff;}.cls-3{fill:#070202;}.cls-4{fill:#b0bec5;}.cls-5{fill:#90a4ae;}</style></defs><title>calendar</title><path class="cls-1" d="M15,46.44v-24H53v24a4,4,0,0,1-4,4H19A4,4,0,0,1,15,46.44Z"/><path class="cls-2" d="M53,18.44v6H15v-6a4,4,0,0,1,4-4H49A4,4,0,0,1,53,18.44Z"/><circle class="cls-3" cx="43.02" cy="18.44" r="3"/><circle class="cls-3" cx="25.02" cy="18.44" r="3"/><path class="cls-4" d="M43,11.44a2,2,0,0,0-2,2v5a2,2,0,0,0,4,0v-5A2,2,0,0,0,43,11.44Z"/><path class="cls-4" d="M25,11.44a2,2,0,0,0-2,2v5a2,2,0,0,0,4,0v-5A2,2,0,0,0,25,11.44Z"/><rect class="cls-5" x="23.02" y="28.44" width="4" height="4"/><rect class="cls-5" x="29.02" y="28.44" width="4" height="4"/><rect class="cls-5" x="35.02" y="28.44" width="4" height="4"/><rect class="cls-5" x="41.02" y="28.44" width="4" height="4"/><rect class="cls-5" x="23.02" y="34.44" width="4" height="4"/><rect class="cls-5" x="29.02" y="34.44" width="4" height="4"/><rect class="cls-5" x="35.02" y="34.44" width="4" height="4"/><rect class="cls-5" x="41.02" y="34.44" width="4" height="4"/><rect class="cls-5" x="23.02" y="40.44" width="4" height="4"/><rect class="cls-5" x="29.02" y="40.44" width="4" height="4"/><rect class="cls-5" x="35.02" y="40.44" width="4" height="4"/><rect class="cls-5" x="41.02" y="40.44" width="4" height="4"/></svg>